<svg id="Layer_1" data-name="Layer 1" xmlns="http://www.w3.org/2000/svg" viewBox="0 0 340.77 138.27"><defs><style>.cls-1{fill:#ff7bac;}.cls-2{fill:#ff80b2;}.cls-3{fill:#3a3c4d;}</style></defs><title>logo</title><path class="cls-1" d="M146.8,86.56A40.62,40.62,0,0,0,143,73.38a39.87,39.87,0,0,0-15.06-16.32c-.32-.19-.59-.43-.92-.62.11-.06-.33-1.57-.22-1.63-4.21.18-7.62,3.42-10.76,6.33l1-.27a19.65,19.65,0,0,1,6.74,9.43,42.25,42.25,0,0,1,1.44,18.19,66.3,66.3,0,0,1-4.71,17.61,49,49,0,0,1-9.34,14.34,34.62,34.62,0,0,1-14.34,9.14q-11,3.66-19.73,1.35c-5.31-1.4-11.48-7.48-14.19-12.06-1.33,1.34-1.64,4.14-3,5.48,2.43,3.17,6.63,7.24,10.24,9.08a40.85,40.85,0,0,0,12.8,4,76.88,76.88,0,0,0,13.38.77,63.76,63.76,0,0,0,13.47-1.83,57.35,57.35,0,0,0,12.61-4.71,46.8,46.8,0,0,0,11-7.89,47.9,47.9,0,0,0,8.18-11,45.41,45.41,0,0,0,4.72-12.8A43.47,43.47,0,0,0,146.8,86.56Z"/><path class="cls-2" d="M140.12,23.82a25.58,25.58,0,0,0-5.87-9.92,34.22,34.22,0,0,0-9.72-7,61.15,61.15,0,0,0-11.65-4.33A91.71,91.71,0,0,0,96.14.14,97.61,97.61,0,0,0,78.33.81,86.79,86.79,0,0,0,61,4.86l-.15,0a32.38,32.38,0,0,1,4,3.09c.22.19.4.42.61.63A50.05,50.05,0,0,1,76.5,6.3,54.22,54.22,0,0,1,98.06,8.51a45.12,45.12,0,0,1,9.34,4.24,33.78,33.78,0,0,1,7.89,6.45,27.79,27.79,0,0,1,5.19,8.37,19.93,19.93,0,0,1,1.06,10.2,22.17,22.17,0,0,1-7.7,14.63c-.27-.07-.55-.11-.82-.17-2.3,3.69-4.79,4.57-8.5,4.76l-.28.07-1.27.25a28,28,0,0,1-3.27.38,21.26,21.26,0,0,1-3,0c-.85-.06-1.33-.28-1.49-.63h-.91c-2.93-2.93,4.58-3.25,3.89-5.62-.7.16-1.39.35-2.06.57A76.49,76.49,0,0,1,104.6,39.5a36.8,36.8,0,0,1,11.55-9.24c.64-.25.9-.57.77-1a1.87,1.87,0,0,0-.77-1,15.77,15.77,0,0,0-4.62-1.64,18,18,0,0,0-4.81-.29,28.81,28.81,0,0,0-13,3.76,47.1,47.1,0,0,0-10.68,8.37,62.29,62.29,0,0,0-8.47,11.07c-1.54,2.55-2.91,5-4.2,7.45-.74,1.41-1.49,2.83-2.15,4.19q-3.28,6.75-6,14T57,89.55q-2.61,7.11-5.68,14a103.14,103.14,0,0,1-7.12,13.28,32.08,32.08,0,0,1-9.43,9.62,18.42,18.42,0,0,1-12.9,2.7,15.56,15.56,0,0,1-11.45-6.74,28,28,0,0,1-2.75-5.18A30.3,30.3,0,0,1,0,114.46a42,42,0,0,0,1.53,5.4,25.86,25.86,0,0,0,8,11.26A26.83,26.83,0,0,0,21.65,137a36.36,36.36,0,0,0,13.66.29,35.19,35.19,0,0,0,12.13-4.52,48.91,48.91,0,0,0,10-8c.27.39.58.74.87,1.11l4-4c-.27-.46-.6-.85-.84-1.33a68.94,68.94,0,0,0,6.83-9.82q3-5.2,5.68-10.78Q80.54,86.67,86.71,72.8l5.58-12.9a13.77,13.77,0,0,0,5.1,2.41,21.22,21.22,0,0,0,5.68.58,35.44,35.44,0,0,0,5.77-.67c1.56-.32,3-.68,4.41-1.08a17.83,17.83,0,0,1,11.3-4.9,39.13,39.13,0,0,0,10-8.46,28.17,28.17,0,0,0,5.67-11.16A23.26,23.26,0,0,0,140.12,23.82Z"/><path class="cls-3" d="M60.86,4.91a32.38,32.38,0,0,1,4,3.09c.22.19.4.42.61.63A50.05,50.05,0,0,1,76.5,6.3,54.22,54.22,0,0,1,98.06,8.51a45.12,45.12,0,0,1,9.34,4.24,33.41,33.41,0,0,1,7.22,5.81c-.56-.77-1.15-1.52-1.79-2.24a33.59,33.59,0,0,0-7.9-6.44A44.81,44.81,0,0,0,95.6,5.64,54,54,0,0,0,74,3.43,50.25,50.25,0,0,0,63,5.75c-.2-.2-.38-.43-.6-.63s-.4-.33-.6-.5L61,4.86Z"/><path class="cls-3" d="M92.76,54.19c.15.34.63.55,1.45.62,1.32-1.13,4.45-1.8,4-3.37-.7.16-1.39.35-2.06.57A76.49,76.49,0,0,1,104.6,39.5a36.8,36.8,0,0,1,11.55-9.24c.64-.25.9-.57.77-1a1.87,1.87,0,0,0-.77-1,14.79,14.79,0,0,0-2.34-1s-.06.05-.12.07a36.8,36.8,0,0,0-11.55,9.24,76.54,76.54,0,0,0-8.47,12.51c.68-.22-1.82,3.2-1.82,5Z"/><path class="cls-3" d="M7.93,119.59a16,16,0,0,0,2.37,2.72,27.86,27.86,0,0,1-2.66-5c-.44-.09-.87-.26-1.31-.38A25.4,25.4,0,0,0,7.93,119.59Z"/><path class="cls-3" d="M140.12,23.82a25.58,25.58,0,0,0-5.87-9.92l-.37-.35a26,26,0,0,1,3.78,7.39,23.36,23.36,0,0,1,.09,12.8,28,28,0,0,1-5.68,11.17,38.91,38.91,0,0,1-10,8.46c-4.39,2.87-8.16,3.07-11.3,4.9-1.39.39-2.85.76-4.41,1.07a35.58,35.58,0,0,1-5.78.68,21.14,21.14,0,0,1-5.67-.58A13.74,13.74,0,0,1,89.82,57l-5.58,12.9q-6.17,13.86-12.7,27.14-2.7,5.58-5.68,10.78A69.67,69.67,0,0,1,59,117.66c.24.49-3.77,4.63-4,4.24a48.91,48.91,0,0,1-10,8,35.26,35.26,0,0,1-12.13,4.52,36.36,36.36,0,0,1-13.66-.29,26.79,26.79,0,0,1-12.13-5.87,27.93,27.93,0,0,1-2.09-2A27.79,27.79,0,0,0,21.65,137a36.36,36.36,0,0,0,13.66.29,35.19,35.19,0,0,0,12.13-4.52,48.91,48.91,0,0,0,10-8c.27.39.58.74.87,1.11l4-4c-.27-.46-.6-.85-.84-1.33a68.94,68.94,0,0,0,6.83-9.82q3-5.2,5.68-10.78Q80.54,86.67,86.71,72.8l5.58-12.9a13.77,13.77,0,0,0,5.1,2.41,21.22,21.22,0,0,0,5.68.58,35.44,35.44,0,0,0,5.77-.67c1.56-.32,3-.68,4.41-1.08a17.83,17.83,0,0,1,11.3-4.9,39.13,39.13,0,0,0,10-8.46,28.17,28.17,0,0,0,5.67-11.16A23.26,23.26,0,0,0,140.12,23.82Z"/><path class="cls-3" d="M144.06,86.56a40.37,40.37,0,0,0-3.85-13.18,39.73,39.73,0,0,0-15.06-16.32c-.31-.19-.59-.43-.91-.62.11-.06.2-.14.31-.2a17.83,17.83,0,0,0-11.3,4.9l1-.27A19.71,19.71,0,0,1,121,70.3a42.25,42.25,0,0,1,1.44,18.19,66.69,66.69,0,0,1-4.72,17.61,49,49,0,0,1-9.33,14.34A34.68,34.68,0,0,1,94,129.58q-11,3.66-19.73,1.35a19.05,19.05,0,0,1-12-9.06l-4,4a26.26,26.26,0,0,0,9,7.55,40.85,40.85,0,0,0,12.8,4,76.88,76.88,0,0,0,13.38.77A63.85,63.85,0,0,0,107,136.41a57.35,57.35,0,0,0,12.61-4.71,46.8,46.8,0,0,0,11-7.89,48.2,48.2,0,0,0,8.18-11,45.72,45.72,0,0,0,4.72-12.8A43.47,43.47,0,0,0,144.06,86.56Z"/><path class="cls-3" d="M94.31,57.06h.91s0,0,0,0a3.61,3.61,0,0,1,2.12-1,13.56,13.56,0,0,1,2.79-.1,23.83,23.83,0,0,1,2.89.38c1,.2,1.7.36,2.21.49l-.66.16c3.71-.19,6.2-1.07,8.5-4.76A47.2,47.2,0,0,0,104.8,51a23.48,23.48,0,0,0-6.6.49C98.89,53.81,91.38,54.13,94.31,57.06Z"/><path class="cls-2" d="M180.11,36.4c3.32,0,5.83.6,7.55,1.8a6.68,6.68,0,0,1,3,4.51,9.92,9.92,0,0,1-1.12,5.93,19.48,19.48,0,0,1-4.77,6,29.74,29.74,0,0,1-8,4.85,33.27,33.27,0,0,1-10.86,2.43,20.72,20.72,0,0,0,.83,4.42,10.36,10.36,0,0,0,1.9,3.64,9.33,9.33,0,0,0,3.11,2.48,9.76,9.76,0,0,0,4.38.92,13.88,13.88,0,0,0,4.53-.83A17.82,17.82,0,0,0,185.37,70a25.63,25.63,0,0,0,4.48-4.24,27.14,27.14,0,0,0,3.8-6,2.12,2.12,0,0,1,.88-1,1.12,1.12,0,0,1,.92-.1.92.92,0,0,1,.59.68,2.25,2.25,0,0,1-.15,1.31,28.8,28.8,0,0,1-4,6.77,26.68,26.68,0,0,1-5.6,5.28,25.94,25.94,0,0,1-6.87,3.41,25,25,0,0,1-7.69,1.19q-7.11,0-11.2-3a14.17,14.17,0,0,1-5.4-7.6,19.74,19.74,0,0,1-.15-9.83A26.55,26.55,0,0,1,159.47,47,27,27,0,0,1,168,39.42,23.85,23.85,0,0,1,180.11,36.4Zm-1.36,2.92a7.78,7.78,0,0,0-4.91,1.8,16.65,16.65,0,0,0-4,4.68,28.78,28.78,0,0,0-2.77,6.42,26.53,26.53,0,0,0-1.17,7.06,14.28,14.28,0,0,0,6-2,22.35,22.35,0,0,0,8.37-8.52,14.18,14.18,0,0,0,1.7-4.62,5.27,5.27,0,0,0-.43-3.51A3,3,0,0,0,178.75,39.32Z"/><path class="cls-2" d="M238.25,59.86a1.68,1.68,0,0,1,.82-1,1.2,1.2,0,0,1,.93-.09,1.18,1.18,0,0,1,.63.68,1.67,1.67,0,0,1,0,1.31,29.86,29.86,0,0,1-7.45,11.69q-4.73,4.38-10,4.38a8.4,8.4,0,0,1-5.74-1.8c-1.37-1.21-2.11-3.1-2.24-5.7a29.27,29.27,0,0,1-5.36,5.16,11.68,11.68,0,0,1-7.2,2.34,8.15,8.15,0,0,1-6.67-2.92,13.09,13.09,0,0,1-2.78-7.31,24.94,24.94,0,0,1,1.17-9.49,28.18,28.18,0,0,1,14.07-16.8,27.66,27.66,0,0,1,13.1-2.92,19.44,19.44,0,0,1,8.23,1.42,11.46,11.46,0,0,1,4.82,4.33c-1.31,3.89-2.5,7.4-3.61,10.51-.45,1.36-.91,2.71-1.36,4s-.88,2.55-1.27,3.66l-1,2.87c-.29.81-.47,1.35-.54,1.6q-1.26,3.51-.92,5c.23,1,.76,1.51,1.61,1.51a5.25,5.25,0,0,0,2.09-.63,10.46,10.46,0,0,0,2.78-2.1,24.14,24.14,0,0,0,3-3.84A32.72,32.72,0,0,0,238.25,59.86Zm-14.9-18.11a3.26,3.26,0,0,0-.88-1.07,3.07,3.07,0,0,0-2-.58A7.9,7.9,0,0,0,215,42.48a26.67,26.67,0,0,0-4.72,6,44.38,44.38,0,0,0-3.65,7.84,44.76,44.76,0,0,0-2.1,7.84,19.41,19.41,0,0,0-.19,6c.26,1.59,1,2.38,2.14,2.38a4.31,4.31,0,0,0,2.29-.68A9.27,9.27,0,0,0,210.93,70a23.06,23.06,0,0,0,2-2.68,32.45,32.45,0,0,0,1.75-3.06,80.21,80.21,0,0,0,3.6-8.28Z"/><path class="cls-2" d="M280,59.86a1.78,1.78,0,0,1,.78-1,1.19,1.19,0,0,1,.93-.09,1,1,0,0,1,.63.68,1.91,1.91,0,0,1-.09,1.31,30.14,30.14,0,0,1-7.41,11.69q-4.67,4.38-10,4.38a8.45,8.45,0,0,1-5.7-1.8,7.42,7.42,0,0,1-2.29-5.5,17.31,17.31,0,0,1-4.43,5.5,9,9,0,0,1-5.6,1.8q-6.42,0-8.47-5.75t1.17-16.26a53.14,53.14,0,0,1,2.39-6.38,26.78,26.78,0,0,1,3.31-5.6,16.6,16.6,0,0,1,4.33-3.94,9.93,9.93,0,0,1,5.35-1.51h2.93q-3,6-5.51,12.46t-3.94,11.79a41.37,41.37,0,0,0-1.6,8.81c-.1,2.3.43,3.46,1.6,3.46a4.14,4.14,0,0,0,2.73-1.22,17.16,17.16,0,0,0,2.68-3.16c.87-1.3,1.71-2.72,2.53-4.24a41.41,41.41,0,0,0,2.09-4.53,1.35,1.35,0,0,1,.2-.58l5.64-16.46a10,10,0,0,1,3.46-4.58,8.88,8.88,0,0,1,5.4-1.75h5.16Q275.93,44,274,49.74q-.87,2.43-1.71,4.92t-1.6,4.67c-.52,1.46-1,2.76-1.36,3.89s-.69,2-.88,2.58c-.85,2.34-1.15,4-.93,5a1.66,1.66,0,0,0,1.71,1.51,4.9,4.9,0,0,0,2-.63A11.69,11.69,0,0,0,274,69.6a22.08,22.08,0,0,0,3.06-3.84A31.46,31.46,0,0,0,280,59.86Z"/><path class="cls-2" d="M301.24,59.86a1.78,1.78,0,0,1,.78-1,1.18,1.18,0,0,1,.93-.09,1.14,1.14,0,0,1,.68.68,1.72,1.72,0,0,1-.05,1.31,29.86,29.86,0,0,1-7.45,11.69q-4.72,4.38-10,4.38a9.83,9.83,0,0,1-4.53-1,5.81,5.81,0,0,1-2.77-3,11,11,0,0,1-.64-5.2,31.09,31.09,0,0,1,1.71-7.45c.39-1.24.84-2.62,1.36-4.14s1.07-3.13,1.66-4.82,1.2-3.42,1.85-5.21,1.26-3.52,1.85-5.21h-4.09l1.26-2.73h3.7l.88-2.43a26.94,26.94,0,0,1,2.39-5.4,10.71,10.71,0,0,1,3.16-3.46,12.21,12.21,0,0,1,4.28-1.8,26.89,26.89,0,0,1,5.75-.54h.09c-.38,1.24-.84,2.57-1.36,4-.45,1.23-1,2.67-1.56,4.33s-1.2,3.42-1.84,5.3l6.32-.58-1.85,3.31h-5.45l-8.57,25q-1.26,3.51-.92,5c.22,1,.76,1.51,1.61,1.51a5.29,5.29,0,0,0,2.09-.63,10.43,10.43,0,0,0,2.77-2.1,23.58,23.58,0,0,0,3-3.84A32.09,32.09,0,0,0,301.24,59.86Z"/><path class="cls-2" d="M340.77,37.37q-4.18,12.27-7.49,22.11c-1,2.79-1.92,5.54-2.83,8.27s-1.74,5.16-2.48,7.3l-1.85,5.31c-.49,1.4-.76,2.19-.83,2.39q-3.21,8.09-8.37,11.54a21.75,21.75,0,0,1-12.37,3.45q-5.35,0-8.08-2.67a9.1,9.1,0,0,1-2.87-6.29,12.45,12.45,0,0,1,2.24-7.3,15.37,15.37,0,0,1,7.25-5.74c.45-.2.89-.38,1.31-.54s.86-.31,1.32-.44c-2.66-1-4.28-3.19-4.87-6.47s0-7.78,1.66-13.49a48.75,48.75,0,0,1,2.43-6.38,28.27,28.27,0,0,1,3.36-5.6,17.07,17.07,0,0,1,4.28-3.94,9.69,9.69,0,0,1,5.31-1.51h2.92q-2.93,6-5.4,12.22a117.83,117.83,0,0,0-4,11.3,37.74,37.74,0,0,0-1.6,8.32c-.1,2.15.4,3.22,1.51,3.22a5.26,5.26,0,0,0,3.74-1.81,24.43,24.43,0,0,0,3.46-4.43,42.66,42.66,0,0,0,3-5.69q.93-2.3,1.71-4.53c.26-.78.58-1.73,1-2.87s.79-2.31,1.22-3.51.81-2.34,1.17-3.41.63-1.89.82-2.48a10,10,0,0,1,3.46-4.58,8.88,8.88,0,0,1,5.4-1.75ZM304.55,95a5.79,5.79,0,0,0,3.94-1.6A17.67,17.67,0,0,0,311.9,89a42.56,42.56,0,0,0,3-6.43q1.36-3.64,2.73-7.74a12.5,12.5,0,0,0-6.09,1.51,17.69,17.69,0,0,0-4.77,3.75,21.2,21.2,0,0,0-3.26,4.82,15.85,15.85,0,0,0-1.56,4.82,7.59,7.59,0,0,0,.3,3.75A2.25,2.25,0,0,0,304.55,95Z"/><path class="cls-3" d="M177.74,118.87l-2-4.87H164.46l-2,4.87h-4.57l10.09-23h4.57l10,23ZM166,110.22h8.09l-4-9.67Z"/><path class="cls-3" d="M215.68,100.09a11.13,11.13,0,0,0-3.28-.59,4.65,4.65,0,0,0-2.5.59,1.86,1.86,0,0,0-.91,1.65,2.16,2.16,0,0,0,.64,1.59,4.78,4.78,0,0,0,1.61,1,24.19,24.19,0,0,0,2.64.91,29.07,29.07,0,0,1,3.84,1.38,6.84,6.84,0,0,1,2.54,2,5.62,5.62,0,0,1,1.05,3.55,6.08,6.08,0,0,1-1.13,3.67,7.11,7.11,0,0,1-3.12,2.38,11.85,11.85,0,0,1-4.56.82,14.28,14.28,0,0,1-5.26-1,14.9,14.9,0,0,1-4.47-2.68l1.84-3.75a13.33,13.33,0,0,0,3.91,2.53,10.33,10.33,0,0,0,4,.92,5.15,5.15,0,0,0,2.89-.7,2.32,2.32,0,0,0,.41-3.56,4.79,4.79,0,0,0-1.62-1c-.66-.26-1.56-.56-2.7-.89a30.85,30.85,0,0,1-3.81-1.35,6.52,6.52,0,0,1-2.54-2,5.47,5.47,0,0,1-1-3.5,5.81,5.81,0,0,1,1.07-3.5,6.87,6.87,0,0,1,3-2.32,11.62,11.62,0,0,1,4.53-.82,15.23,15.23,0,0,1,4.42.66,14.82,14.82,0,0,1,3.9,1.77l-1.78,3.85A16.48,16.48,0,0,0,215.68,100.09Z"/><path class="cls-3" d="M245.22,95.85h16.87V99.7H249.63v5.69h11.18v3.84H249.63V115h12.86v3.85H245.22Z"/></svg>